<?xml version="1.0" encoding="windows-1252"?>
<!-- Uploaded to: SVG Repo, www.svgrepo.com, Generator: SVG Repo Mixer Tools -->
<!DOCTYPE svg PUBLIC "-//W3C//DTD SVG 1.1//EN" "http://www.w3.org/Graphics/SVG/1.1/DTD/svg11.dtd">
<svg fill="#000000" version="1.1" id="Capa_1" xmlns="http://www.w3.org/2000/svg" xmlns:xlink="http://www.w3.org/1999/xlink" width="800px" height="800px" viewBox="0 0 360.867 360.867" xml:space="preserve">
<g>
	<g>
		<g>
			<path d="M318.832,167.728c-16.261-10.854-35.194-16.204-54.71-15.889c9.992-15.306,15.246-33.026,15.246-51.485     c0-32.27-16.225-62-43.421-79.543l-1.398-0.892l-4.191,5.708l1.261,1.051c16.52,13.901,26.001,34.2,26.001,55.733     c0,40.139-32.673,72.802-72.796,72.802c-40.14,0-72.803-32.663-72.803-72.802c0-21.533,9.476-41.838,26.004-55.733l1.267-1.051     l-4.207-5.702l-1.384,0.892c-27.202,17.531-43.448,47.261-43.448,79.542c0,17.156,4.618,33.825,13.373,48.453     c-21.734-2.053-43.484,3.372-61.585,15.465c-26.848,17.924-42.565,47.927-42.028,80.281l0.024,1.657l7.077,0.324l0.171-1.633     c2.375-21.438,14.003-40.604,31.906-52.549c12.028-8.031,25.986-12.279,40.364-12.279c24.416,0,47.068,12.105,60.604,32.39     c10.796,16.165,14.664,35.572,10.856,54.662c-3.804,19.065-14.799,35.494-30.964,46.291     c-11.997,8.017-25.943,12.249-40.343,12.249c-6.918,0-13.805-0.973-20.458-2.918l-1.585-0.456l-2.393,6.677l1.513,0.654     c12.027,5.201,24.761,7.861,37.869,7.861c18.675,0,36.797-5.507,52.383-15.926c14.093-9.391,25.298-22.277,32.603-37.397     c7.206,16.621,18.957,30.696,34.173,40.875c15.595,10.406,33.705,15.906,52.387,15.906c13.108,0,25.844-2.642,37.884-7.854     l1.507-0.684l-2.407-6.654l-1.579,0.457c-6.636,1.939-13.523,2.936-20.453,2.936c-14.369,0-28.312-4.245-40.34-12.262     c-16.153-10.796-27.147-27.255-30.961-46.314c-3.795-19.083,0.055-38.49,10.851-54.644c13.529-20.29,36.209-32.387,60.612-32.387     c14.394,0,28.337,4.23,40.364,12.259c17.9,11.967,29.544,31.129,31.903,52.59l0.169,1.615l7.067-0.312l0.036-1.651     C361.394,215.676,345.679,185.658,318.832,167.728z M197.307,192.99c-1.207,1.573-2.432,3.219-3.537,4.912     c-3.773,5.645-6.911,11.781-9.316,18.272l-3.657,9.878l-3.239-10.028c-2.474-7.662-5.996-14.922-10.449-21.569     c-0.585-0.864-1.192-1.729-1.801-2.569l-5.38-7.384l8.989,1.648c8.542,1.562,16.486,1.874,25.16,0.991l8.442-0.877     L197.307,192.99z"/>
		</g>
	</g>
</g>
</svg>