<?xml version="1.0" encoding="utf-8"?>
<!DOCTYPE svg PUBLIC "-//W3C//DTD SVG 1.1//EN" "http://www.w3.org/Graphics/SVG/1.1/DTD/svg11.dtd">
<svg version="1.1" xmlns="http://www.w3.org/2000/svg" xmlns:xlink="http://www.w3.org/1999/xlink" x="0px" y="0px" viewBox="0 0 256 256" enable-background="new 0 0 256 256" xml:space="preserve">
<metadata> Svg Vector Icons : http://www.onlinewebfonts.com/icon </metadata>
<g><g><g><path fill="#000000" d="M114.9,16.5c-17.9,3.9-29.7,10.1-41.3,21.8c-6.1,6.1-10.2,11.9-14,19.6c-5.4,10.9-8.1,22.2-8.1,33.9c0,3.9,0,4-1.2,4.5c-0.7,0.3-3.7,2.2-6.6,4.1c-7.1,4.7-16,13.6-20.7,20.6c-8.1,12.3-12.3,25.1-12.8,39.6c-0.3,8.2,0.2,13.9,2,21.1c1.1,4.5,3.8,12.3,4.1,11.9c0.1-0.1-0.3-1.8-1-4c-5.2-18.1,0.3-37.9,14.2-51.1c4.1-3.9,7.5-6.3,12.6-8.8c6.2-3.1,11-4.4,18.7-5.2c4-0.4,5.3-0.4,11.9,0.6c7.9,1.2,11.6,2.4,17.2,5.4c18.1,9.8,29,30.3,26.7,50.2c-2,18.4-12.2,33.1-28.4,41.1c-7.2,3.6-12.8,5-20.6,5.3c-6.5,0.3-11.4-0.3-17.4-2c-7.9-2.3-17-7.8-22.6-13.7c-3.6-3.7-2.8-2.4,1.3,2.4c9.5,11,23.2,19.5,37.8,23.4c13.8,3.7,29.7,3.3,43.3-1.2c4.2-1.3,12.6-5.2,16.3-7.4l1.7-1.1l1.8,1.1c3.6,2.2,12,6,16.2,7.4c8.3,2.7,13.6,3.5,23.6,3.5c9.7,0,13.6-0.5,21.4-2.8c14-4.1,27.6-12.8,36.6-23.5c4.4-5.2,4.4-5.5,0.2-1.2c-7.8,7.8-17.2,12.7-28.4,14.7c-6.2,1.1-15.2,0.7-21.4-0.9c-9.4-2.4-19.6-8.7-25.7-15.6c-3.1-3.6-7-9.5-7.7-11.8c-0.3-0.9-1.3-3.5-2.2-5.6c-4.9-11.9-4.1-26.4,1.9-39.1c2.6-5.4,5-9,8.9-13.1c15.7-16.7,40.5-21,61.2-10.6c10.7,5.4,19.7,14.9,24.3,26c4.9,11.9,5.3,24.1,1.1,37c-0.3,0.9-0.3,0.9,0.2,0c0.9-1.4,3.6-9.6,4.3-13.2c1.4-7,1.8-11.6,1.5-19.1c-0.6-14.8-4.6-27.1-12.9-39.8c-4.7-7-13.5-15.8-20.7-20.6c-2.9-1.9-5.9-3.7-6.5-4.1c-1.2-0.6-1.3-0.7-1.3-4.3c-0.1-31.4-19-59.4-48-71.1c-5.3-2.1-12.8-4.2-16.7-4.6c-2.1-0.2-1.9-0.1,1.8,0.9c17.8,5,31.7,19.1,36.5,37c1.1,4.1,1.2,5.3,1.2,12.8c0,7.5-0.1,8.7-1.2,12.8c-2.4,8.9-7.1,16.8-14.8,24.7c-5,5.2-14,10.2-22.3,12.4c-4.1,1.2-5.3,1.2-13.1,1.2c-7.8,0-8.9-0.1-13.1-1.2c-5.3-1.4-12.6-4.8-16.9-7.8c-4.1-2.9-9.7-8.6-12.5-12.6c-3.2-4.6-6.2-11.2-7.7-16.6c-1.1-4.1-1.2-5.3-1.2-12.8c0-7.5,0.1-8.7,1.2-12.8c5.1-19,19.4-32.9,38.8-37.6c1.6-0.4,1.7-0.5,0.5-0.5C116.4,16.2,115.4,16.3,114.9,16.5z"/><path fill="#000000" d="M116.7,70.8c-9.7,1.7-19.5,5.5-27.1,10.6l-2.2,1.4l1.3,2.9c1.8,3.8,4.6,7.8,7.8,11.3l2.7,2.9l1.8-1.1c3.7-2.2,8.8-4.6,11.7-5.5c13.9-4.5,29.2-2.5,41.6,5.3c1,0.6,2.1,1,2.4,0.9c1.2-0.5,8.7-10.3,10.2-13.4c0.9-1.7,1.5-3.2,1.4-3.3c-0.1,0-1.5-1-3.1-2.1c-6.2-4-15-7.6-23.5-9.5C137,70.2,121.8,69.9,116.7,70.8z"/><path fill="#000000" d="M60.4,132.7l-1.9,0.2l-0.3,3.2c-0.4,4.3,0.4,13.3,1.5,18.3c1.2,5.3,3.3,11.4,5.9,16.6c6.3,12.6,17.9,24.3,30,30.4c4,2,3.4,2.3,6.8-3.4c1.9-3.3,4.4-9.2,5-12.3c0.3-1.4,0.2-1.5-3.5-3.6c-9.4-5.3-17.2-14.1-21.2-23.9c-2.2-5.5-3.2-10.1-3.5-17.1l-0.3-6.3l-1.9-0.5c-3.3-0.8-11.5-1.9-13.2-1.8C63,132.5,61.5,132.6,60.4,132.7z"/><path fill="#000000" d="M185,132.9c-1.5,0.2-3.9,0.7-5.3,1.2l-2.6,0.7l-0.3,6.3c-0.4,9.9-2.7,17.3-7.8,25c-4.6,7-10.3,12.3-17.3,16.2c-3.3,1.8-3.4,1.9-3.1,3.3c0.1,0.8,0.6,1.9,0.9,2.6c0.3,0.6,1.2,2.7,1.8,4.6c1.1,3,3.3,7.1,5.1,9.4c0.6,0.8,0.8,0.7,4.1-0.9c12.2-6.1,23.7-17.8,30.2-30.8c2.4-4.8,4.8-11.9,5.9-17.1c0.9-4.6,1.5-12.8,1.2-17.2l-0.2-3.3l-2.8-0.3C191.3,132.3,188.5,132.4,185,132.9z"/></g></g></g>
</svg>